<?xml version="1.0" encoding="UTF-8"?>
<svg xmlns="http://www.w3.org/2000/svg" viewBox="0 0 1100 615" width="1100" height="615">
<defs>
  <style>text { font-family: 'Segoe UI', 'PingFang SC', 'Microsoft YaHei', sans-serif; }</style>
</defs>

<!-- Page background -->
<rect width="1100" height="615" fill="#e0f2fe"/>

<!-- Title -->
<text x="550" y="24" text-anchor="middle" font-size="18" font-weight="700" fill="#0369a1" letter-spacing="1">Aegis Vault 應用架構圖</text>

<!-- ══════════════════════════════════════════════════════
     Layer 1: Frontend   y=34  h=62
══════════════════════════════════════════════════════ -->
<rect x="10" y="34" width="1080" height="62" rx="7" fill="#ffffff" stroke="#7dd3fc" stroke-width="1.5"/>
<text x="24" y="69" text-anchor="middle" font-size="9" font-weight="700" fill="#0369a1" transform="rotate(-90 24 65)">前端界面</text>

<rect x="44"  y="39" width="203" height="52" rx="5" fill="#e0f2fe" stroke="#38bdf8" stroke-width="1"/>
<text x="145" y="60" text-anchor="middle" font-size="12" font-weight="700" fill="#0c4a6e">客戶端</text>
<text x="145" y="76" text-anchor="middle" font-size="10" fill="#0369a1">Web / Mobile</text>

<rect x="254" y="39" width="203" height="52" rx="5" fill="#e0f2fe" stroke="#38bdf8" stroke-width="1"/>
<text x="355" y="60" text-anchor="middle" font-size="12" font-weight="700" fill="#0c4a6e">管理後台</text>
<text x="355" y="76" text-anchor="middle" font-size="10" fill="#0369a1">運營管理</text>

<rect x="464" y="39" width="203" height="52" rx="5" fill="#e0f2fe" stroke="#38bdf8" stroke-width="1"/>
<text x="565" y="60" text-anchor="middle" font-size="12" font-weight="700" fill="#0c4a6e">移動審批</text>
<text x="565" y="76" text-anchor="middle" font-size="10" fill="#0369a1">多簽授權</text>

<rect x="674" y="39" width="203" height="52" rx="5" fill="#e0f2fe" stroke="#38bdf8" stroke-width="1"/>
<text x="775" y="60" text-anchor="middle" font-size="12" font-weight="700" fill="#0c4a6e">RWA 平台</text>
<text x="775" y="76" text-anchor="middle" font-size="10" fill="#0369a1">資產管理</text>

<rect x="884" y="39" width="203" height="52" rx="5" fill="#e0f2fe" stroke="#38bdf8" stroke-width="1"/>
<text x="985" y="60" text-anchor="middle" font-size="12" font-weight="700" fill="#0c4a6e">氣隙操作台</text>
<text x="985" y="76" text-anchor="middle" font-size="10" fill="#0369a1">HK 離線部署</text>

<!-- Connector 1 -->
<text x="550" y="109" text-anchor="middle" font-size="14" font-weight="700" fill="#0369a1">↓</text>

<!-- ══════════════════════════════════════════════════════
     Layer 2: Five Products   y=114  h=108
══════════════════════════════════════════════════════ -->
<rect x="10" y="114" width="1080" height="108" rx="7" fill="#f0f9ff" stroke="#0ea5e9" stroke-width="2"/>
<text x="24" y="173" text-anchor="middle" font-size="9" font-weight="700" fill="#0369a1" transform="rotate(-90 24 168)">五大產品</text>

<!-- CUSTODY -->
<rect x="44"  y="119" width="203" height="98" rx="5" fill="#1d4ed8" stroke="#1e40af" stroke-width="1.5"/>
<text x="145" y="141" text-anchor="middle" font-size="12" font-weight="700" fill="#ffffff">CUSTODY</text>
<text x="145" y="157" text-anchor="middle" font-size="10" fill="#bfdbfe">托管</text>
<text x="145" y="172" text-anchor="middle" font-size="10" fill="#bfdbfe">地址 · 帳戶 · 白名單</text>
<text x="145" y="187" text-anchor="middle" font-size="10" fill="#bfdbfe">審批 · 歷史</text>

<!-- TRANSACTION -->
<rect x="254" y="119" width="203" height="98" rx="5" fill="#0369a1" stroke="#075985" stroke-width="1.5"/>
<text x="355" y="141" text-anchor="middle" font-size="12" font-weight="700" fill="#ffffff">TRANSACTION</text>
<text x="355" y="157" text-anchor="middle" font-size="10" fill="#bae6fd">交易</text>
<text x="355" y="172" text-anchor="middle" font-size="10" fill="#bae6fd">入金 · 出金</text>
<text x="355" y="187" text-anchor="middle" font-size="10" fill="#bae6fd">冷熱分流 · 多簽</text>

<!-- CUSTODIAL STAKING -->
<rect x="464" y="119" width="203" height="98" rx="5" fill="#0e7490" stroke="#0c5f75" stroke-width="1.5"/>
<text x="565" y="141" text-anchor="middle" font-size="11" font-weight="700" fill="#ffffff">CUSTODIAL STAKING</text>
<text x="565" y="157" text-anchor="middle" font-size="10" fill="#a5f3fc">托管質押</text>
<text x="565" y="172" text-anchor="middle" font-size="10" fill="#a5f3fc">委託質押</text>
<text x="565" y="187" text-anchor="middle" font-size="10" fill="#a5f3fc">流動性質押</text>

<!-- EXECUTION -->
<rect x="674" y="119" width="203" height="98" rx="5" fill="#0284c7" stroke="#0369a1" stroke-width="1.5"/>
<text x="775" y="141" text-anchor="middle" font-size="12" font-weight="700" fill="#ffffff">EXECUTION</text>
<text x="775" y="157" text-anchor="middle" font-size="10" fill="#bae6fd">執行</text>
<text x="775" y="172" text-anchor="middle" font-size="10" fill="#bae6fd">交易路由</text>
<text x="775" y="187" text-anchor="middle" font-size="10" fill="#bae6fd">法幣入 / 出金</text>

<!-- SERVICES -->
<rect x="884" y="119" width="203" height="98" rx="5" fill="#0891b2" stroke="#0e7490" stroke-width="1.5"/>
<text x="985" y="141" text-anchor="middle" font-size="12" font-weight="700" fill="#ffffff">SERVICES</text>
<text x="985" y="157" text-anchor="middle" font-size="10" fill="#cffafe">服務</text>
<text x="985" y="172" text-anchor="middle" font-size="10" fill="#cffafe">對帳報表</text>
<text x="985" y="187" text-anchor="middle" font-size="10" fill="#cffafe">數據統計</text>

<!-- Connector 2 -->
<text x="550" y="235" text-anchor="middle" font-size="14" font-weight="700" fill="#0369a1">↓</text>

<!-- ══════════════════════════════════════════════════════
     Layer 3: API   y=240  h=50
══════════════════════════════════════════════════════ -->
<rect x="10" y="240" width="1080" height="50" rx="7" fill="#ffffff" stroke="#7dd3fc" stroke-width="1.5"/>
<text x="24" y="270" text-anchor="middle" font-size="9" font-weight="700" fill="#0369a1" transform="rotate(-90 24 265)">API 層</text>

<rect x="44"  y="245" width="519" height="40" rx="5" fill="#0369a1" stroke="#075985" stroke-width="1"/>
<text x="303" y="262" text-anchor="middle" font-size="12" font-weight="700" fill="#ffffff">業務 REST API</text>
<text x="303" y="277" text-anchor="middle" font-size="10" fill="#bae6fd">認證 · 審批流程 · 白名單 · ORM · PostgreSQL</text>

<rect x="570" y="245" width="520" height="40" rx="5" fill="#0369a1" stroke="#075985" stroke-width="1"/>
<text x="830" y="262" text-anchor="middle" font-size="12" font-weight="700" fill="#ffffff">RWA 資產 API</text>
<text x="830" y="277" text-anchor="middle" font-size="10" fill="#bae6fd">資產發行 · 合規管理</text>

<!-- Connector 3 -->
<text x="550" y="303" text-anchor="middle" font-size="14" font-weight="700" fill="#0369a1">↓</text>

<!-- ══════════════════════════════════════════════════════
     Layer 4: Cold / Hot Wallet   y=308  h=80
══════════════════════════════════════════════════════ -->
<rect x="10" y="308" width="1080" height="80" rx="7" fill="#ffffff" stroke="#7dd3fc" stroke-width="1.5"/>
<text x="24" y="352" text-anchor="middle" font-size="9" font-weight="700" fill="#0369a1" transform="rotate(-90 24 348)">冷熱錢包</text>

<!-- Cold wallet x=44 w=639 -->
<rect x="44"  y="313" width="639" height="70" rx="5" fill="#075985" stroke="#0369a1" stroke-width="2"/>
<text x="363" y="335" text-anchor="middle" font-size="12" font-weight="700" fill="#e0f2fe">❄️ 冷錢包 — 大額離線簽名</text>
<text x="363" y="351" text-anchor="middle" font-size="10" fill="#bae6fd">離線 API → TX 構造 → HSM / PKCS#11 簽名 → 閘道廣播</text>
<text x="363" y="366" text-anchor="middle" font-size="10" fill="#bae6fd">氣隙通道（HK 部署）· 多簽 MCP · 密鑰分片</text>

<!-- Hot wallet x=690 w=400 -->
<rect x="690" y="313" width="400" height="70" rx="5" fill="#c2410c" stroke="#9a3412" stroke-width="2"/>
<text x="890" y="335" text-anchor="middle" font-size="12" font-weight="700" fill="#ffedd5">🔥 熱錢包 — 小額快速</text>
<text x="890" y="351" text-anchor="middle" font-size="10" fill="#fed7aa">HSM 在線簽名</text>
<text x="890" y="366" text-anchor="middle" font-size="10" fill="#fed7aa">SoftHSM / CloudHSM / Thales</text>

<!-- Connector 4 -->
<text x="550" y="401" text-anchor="middle" font-size="14" font-weight="700" fill="#0369a1">↓</text>

<!-- ══════════════════════════════════════════════════════
     Layer 5: Multi-chain   y=406  h=50
══════════════════════════════════════════════════════ -->
<rect x="10" y="406" width="1080" height="50" rx="7" fill="#f0f9ff" stroke="#0ea5e9" stroke-width="2"/>
<text x="24" y="436" text-anchor="middle" font-size="9" font-weight="700" fill="#0369a1" transform="rotate(-90 24 431)">多鏈廣播</text>

<rect x="44"  y="411" width="1046" height="40" rx="5" fill="#0369a1" stroke="#075985" stroke-width="1"/>
<text x="158" y="435" text-anchor="middle" font-size="12" font-weight="700" fill="#ffffff">多鏈廣播 | 10+ 鏈</text>

<!-- Chain chips -->
<rect x="262" y="418" width="72" height="18" rx="9" fill="white" fill-opacity="0.18" stroke="white" stroke-opacity="0.4" stroke-width="1"/>
<text x="298" y="431" text-anchor="middle" font-size="10" fill="#e0f2fe">ETH / EVM</text>

<rect x="340" y="418" width="54" height="18" rx="9" fill="white" fill-opacity="0.18" stroke="white" stroke-opacity="0.4" stroke-width="1"/>
<text x="367" y="431" text-anchor="middle" font-size="10" fill="#e0f2fe">Bitcoin</text>

<rect x="400" y="418" width="50" height="18" rx="9" fill="white" fill-opacity="0.18" stroke="white" stroke-opacity="0.4" stroke-width="1"/>
<text x="425" y="431" text-anchor="middle" font-size="10" fill="#e0f2fe">Solana</text>

<rect x="456" y="418" width="42" height="18" rx="9" fill="white" fill-opacity="0.18" stroke="white" stroke-opacity="0.4" stroke-width="1"/>
<text x="477" y="431" text-anchor="middle" font-size="10" fill="#e0f2fe">Tron</text>

<rect x="504" y="418" width="56" height="18" rx="9" fill="white" fill-opacity="0.18" stroke="white" stroke-opacity="0.4" stroke-width="1"/>
<text x="532" y="431" text-anchor="middle" font-size="10" fill="#e0f2fe">Polygon</text>

<rect x="566" y="418" width="38" height="18" rx="9" fill="white" fill-opacity="0.18" stroke="white" stroke-opacity="0.4" stroke-width="1"/>
<text x="585" y="431" text-anchor="middle" font-size="10" fill="#e0f2fe">BSC</text>

<rect x="610" y="418" width="68" height="18" rx="9" fill="white" fill-opacity="0.18" stroke="white" stroke-opacity="0.4" stroke-width="1"/>
<text x="644" y="431" text-anchor="middle" font-size="10" fill="#e0f2fe">Avalanche</text>

<rect x="684" y="418" width="56" height="18" rx="9" fill="white" fill-opacity="0.18" stroke="white" stroke-opacity="0.4" stroke-width="1"/>
<text x="712" y="431" text-anchor="middle" font-size="10" fill="#e0f2fe">Cosmos</text>

<rect x="746" y="418" width="40" height="18" rx="9" fill="white" fill-opacity="0.18" stroke="white" stroke-opacity="0.4" stroke-width="1"/>
<text x="766" y="431" text-anchor="middle" font-size="10" fill="#e0f2fe">XRP</text>

<rect x="792" y="418" width="38" height="18" rx="9" fill="white" fill-opacity="0.18" stroke="white" stroke-opacity="0.4" stroke-width="1"/>
<text x="811" y="431" text-anchor="middle" font-size="10" fill="#e0f2fe">TON</text>

<rect x="836" y="418" width="52" height="18" rx="9" fill="white" fill-opacity="0.18" stroke="white" stroke-opacity="0.4" stroke-width="1"/>
<text x="862" y="431" text-anchor="middle" font-size="10" fill="#e0f2fe">私有鏈</text>

<!-- Connector 5 -->
<text x="550" y="469" text-anchor="middle" font-size="14" font-weight="700" fill="#0369a1">↓</text>

<!-- ══════════════════════════════════════════════════════
     Layer 6: Event Pipeline   y=474  h=50
══════════════════════════════════════════════════════ -->
<rect x="10" y="474" width="1080" height="50" rx="7" fill="#ffffff" stroke="#7dd3fc" stroke-width="1.5"/>
<text x="24" y="503" text-anchor="middle" font-size="9" font-weight="700" fill="#0369a1" transform="rotate(-90 24 499)">事件管道</text>

<!-- n1: 區塊鏈/RPC  x=44 w=157 -->
<rect x="44"  y="479" width="157" height="40" rx="4" fill="#0c4a6e" stroke="#082f49" stroke-width="1"/>
<text x="122" y="503" text-anchor="middle" font-size="11" fill="#e0f2fe">區塊鏈 / RPC</text>
<text x="213" y="503" text-anchor="middle" font-size="14" font-weight="700" fill="#0369a1">→</text>

<!-- n2: 事件訂閱  x=225 w=157 -->
<rect x="225" y="479" width="157" height="40" rx="4" fill="#0284c7" stroke="#075985" stroke-width="1"/>
<text x="303" y="503" text-anchor="middle" font-size="11" fill="#ffffff">事件訂閱</text>
<text x="394" y="503" text-anchor="middle" font-size="14" font-weight="700" fill="#0369a1">→</text>

<!-- n3: Kafka  x=406 w=157 -->
<rect x="406" y="479" width="157" height="40" rx="4" fill="#92400e" stroke="#78350f" stroke-width="1"/>
<text x="484" y="503" text-anchor="middle" font-size="11" fill="#fef3c7">Kafka</text>
<text x="575" y="503" text-anchor="middle" font-size="14" font-weight="700" fill="#0369a1">→</text>

<!-- n4: WebSocket  x=587 w=157 -->
<rect x="587" y="479" width="157" height="40" rx="4" fill="#0284c7" stroke="#075985" stroke-width="1"/>
<text x="665" y="503" text-anchor="middle" font-size="11" fill="#ffffff">WebSocket 推送</text>
<text x="756" y="503" text-anchor="middle" font-size="14" font-weight="700" fill="#0369a1">→</text>

<!-- n5: 交易入帳  x=768 w=157 -->
<rect x="768" y="479" width="157" height="40" rx="4" fill="#0284c7" stroke="#075985" stroke-width="1"/>
<text x="846" y="503" text-anchor="middle" font-size="11" fill="#ffffff">交易入帳</text>
<text x="937" y="503" text-anchor="middle" font-size="14" font-weight="700" fill="#0369a1">→</text>

<!-- n6: PostgreSQL  x=949 w=141 -->
<rect x="949" y="479" width="141" height="40" rx="4" fill="#0c4a6e" stroke="#082f49" stroke-width="1"/>
<text x="1019" y="503" text-anchor="middle" font-size="11" fill="#e0f2fe">PostgreSQL</text>

<!-- Connector 6 -->
<text x="550" y="537" text-anchor="middle" font-size="14" font-weight="700" fill="#0369a1">↓</text>

<!-- ══════════════════════════════════════════════════════
     Layer 7: Compliance   y=542  h=62
══════════════════════════════════════════════════════ -->
<rect x="10" y="542" width="1080" height="62" rx="7" fill="#f0f9ff" stroke="#0369a1" stroke-width="2"/>
<text x="24" y="577" text-anchor="middle" font-size="9" font-weight="700" fill="#0369a1" transform="rotate(-90 24 573)">合規安全</text>

<!-- 6 boxes: w=168 gap=7  x: 44,219,394,569,744,919 -->
<rect x="44"  y="547" width="168" height="52" rx="4" fill="#0369a1" stroke="#075985" stroke-width="1"/>
<text x="128" y="567" text-anchor="middle" font-size="11" font-weight="700" fill="#ffffff">KYC / AML / KYT</text>
<text x="128" y="583" text-anchor="middle" font-size="10" fill="#bae6fd">身份核驗 · 反洗錢</text>

<rect x="219" y="547" width="168" height="52" rx="4" fill="#0369a1" stroke="#075985" stroke-width="1"/>
<text x="303" y="567" text-anchor="middle" font-size="11" font-weight="700" fill="#ffffff">黑白名單</text>
<text x="303" y="583" text-anchor="middle" font-size="10" fill="#bae6fd">地址管控</text>

<rect x="394" y="547" width="168" height="52" rx="4" fill="#0369a1" stroke="#075985" stroke-width="1"/>
<text x="478" y="567" text-anchor="middle" font-size="11" font-weight="700" fill="#ffffff">權限控制</text>
<text x="478" y="583" text-anchor="middle" font-size="10" fill="#bae6fd">RBAC · 審批流</text>

<rect x="569" y="547" width="168" height="52" rx="4" fill="#0369a1" stroke="#075985" stroke-width="1"/>
<text x="653" y="567" text-anchor="middle" font-size="11" font-weight="700" fill="#ffffff">審計機制</text>
<text x="653" y="583" text-anchor="middle" font-size="10" fill="#bae6fd">全量操作日誌</text>

<rect x="744" y="547" width="168" height="52" rx="4" fill="#0369a1" stroke="#075985" stroke-width="1"/>
<text x="828" y="567" text-anchor="middle" font-size="11" font-weight="700" fill="#ffffff">HSM 密鑰管理</text>
<text x="828" y="583" text-anchor="middle" font-size="10" fill="#bae6fd">分片 · 多簽</text>

<rect x="919" y="547" width="168" height="52" rx="4" fill="#0369a1" stroke="#075985" stroke-width="1"/>
<text x="1003" y="567" text-anchor="middle" font-size="11" font-weight="700" fill="#ffffff">資金隔離</text>
<text x="1003" y="583" text-anchor="middle" font-size="10" fill="#bae6fd">冷熱分離策略</text>

</svg>
